<svg width="283" height="217" viewBox="0 0 283 217" fill="none" xmlns="http://www.w3.org/2000/svg">
<rect x="3.5" y="3.5" width="276" height="210" rx="10.5" stroke="white" stroke-opacity="0.25" stroke-width="7"/>
<path d="M28.5 196.598C30.5 195.443 30.5 192.557 28.5 191.402L21 187.072C19 185.917 16.5 187.36 16.5 189.67L16.5 198.33C16.5 200.64 19 202.083 21 200.928L28.5 196.598Z" fill="white" fill-opacity="0.25"/>
<path fill-rule="evenodd" clip-rule="evenodd" d="M39.2932 194C39.2906 195.127 39.2403 196.665 39.9377 197.239C40.5882 197.775 41.046 197.637 42.2335 197.724C43.4219 197.812 45.93 201.306 47.8634 200.201C48.8609 199.416 48.935 197.772 48.935 194C48.935 190.228 48.8609 188.584 47.8634 187.799C45.93 186.694 43.4219 190.188 42.2335 190.276C41.046 190.363 40.5882 190.225 39.9377 190.761C39.2403 191.335 39.2906 192.873 39.2932 194Z" fill="white" fill-opacity="0.25"/>
<path d="M54.9521 188.412C57.2897 191.777 57.2974 196.216 54.9521 199.587" stroke="white" stroke-opacity="0.25" stroke-width="1.5" stroke-linecap="round" stroke-linejoin="round"/>
<path d="M52.6577 190.622C53.8597 192.721 53.8597 195.286 52.6577 197.379" stroke="white" stroke-opacity="0.25" stroke-width="1.5" stroke-linecap="round" stroke-linejoin="round"/>
<path fill-rule="evenodd" clip-rule="evenodd" d="M268.487 189.646V189.646C267.861 188.553 266.474 188.179 265.39 188.81C264.447 189.358 263.268 188.673 263.268 187.576C263.268 186.315 262.252 185.292 261 185.292V185.292C259.748 185.292 258.732 186.315 258.732 187.576C258.732 188.673 257.553 189.358 256.611 188.81C255.526 188.179 254.139 188.553 253.512 189.646C252.887 190.739 253.258 192.136 254.343 192.766C255.285 193.315 255.285 194.685 254.343 195.234C253.258 195.865 252.887 197.262 253.512 198.354C254.139 199.447 255.526 199.821 256.61 199.191H256.611C257.553 198.642 258.732 199.327 258.732 200.424V200.424C258.732 201.685 259.748 202.708 261 202.708V202.708C262.252 202.708 263.268 201.685 263.268 200.424V200.424C263.268 199.327 264.447 198.642 265.39 199.191C266.474 199.821 267.861 199.447 268.487 198.354C269.114 197.262 268.742 195.865 267.658 195.234H267.657C266.715 194.685 266.715 193.315 267.658 192.766C268.742 192.136 269.114 190.739 268.487 189.646Z" fill="white" fill-opacity="0.25"/>
<path fill-rule="evenodd" clip-rule="evenodd" d="M261 191.708C262.266 191.708 263.292 192.734 263.292 194C263.292 195.266 262.266 196.292 261 196.292C259.734 196.292 258.708 195.266 258.708 194C258.708 192.734 259.734 191.708 261 191.708Z" stroke="white" stroke-opacity="0.25" stroke-width="1.5" stroke-linecap="round" stroke-linejoin="round"/>
<rect x="16" y="174" width="253" height="5" rx="2.5" fill="white" fill-opacity="0.25"/>
<rect x="16" y="174" width="188" height="5" rx="2.5" fill="white" fill-opacity="0.25"/>
<circle cx="141.5" cy="90.5" r="47.5" fill="#D9D9D9" fill-opacity="0.25"/>
<path d="M163 95.6962C167 93.3868 167 87.6132 163 85.3038L135.25 69.2824C131.25 66.973 126.25 69.8597 126.25 74.4785V106.521C126.25 111.14 131.25 114.027 135.25 111.718L163 95.6962Z" fill="white" fill-opacity="0.25"/>
</svg>
