<svg width="94" height="94" viewBox="0 0 94 94" fill="none" xmlns="http://www.w3.org/2000/svg">
<circle cx="47" cy="47" r="47" fill="white"/>
<mask id="mask0_790_532" style="mask-type:alpha" maskUnits="userSpaceOnUse" x="0" y="0" width="94" height="94">
<circle cx="47" cy="47" r="47" fill="white"/>
</mask>
<g mask="url(#mask0_790_532)">
<path d="M92.991 286.481C92.782 285.615 91.987 285.03 91.216 284.583C89.553 283.618 87.742 282.929 86.072 281.976C83.727 280.636 81.705 278.8 79.8 276.885C79.155 276.236 78.518 275.573 77.903 274.89C78.168 274.736 78.441 274.597 78.698 274.43C77.537 271.411 76.614 268.3 75.94 265.136C75.669 263.864 75.439 262.538 75.74 261.273C76.05 259.971 76.892 258.86 77.326 257.594C77.948 255.776 77.687 253.793 77.487 251.882C76.512 242.584 77.152 233.2 77.793 223.873C77.91 222.174 78.032 220.45 78.597 218.844C78.994 217.715 79.616 216.567 79.382 215.394C79.223 214.601 78.694 213.943 78.309 213.232C77.127 211.048 77.327 208.408 77.558 205.936C78.941 191.136 80.324 176.336 81.707 161.536C83.387 160.038 84.826 158.17 86.166 156.351C85.528 155.341 84.946 154.303 84.4 153.249C85.473 152.342 86.118 150.993 86.385 149.607C86.416 149.445 86.425 149.282 86.446 149.12C87.337 149.537 88.286 149.849 89.314 149.999C87.472 148.222 88.432 144.414 88.374 141.855C88.221 135.17 88.069 128.484 87.916 121.799C87.892 120.761 87.877 119.68 88.316 118.739C88.482 118.383 88.711 118.054 88.832 117.68C89.097 116.857 88.803 115.971 88.533 115.151C87.62 112.38 86.952 109.528 86.541 106.64C86.341 105.234 86.204 103.782 86.567 102.41C86.773 101.633 87.137 100.892 87.22 100.092C87.322 99.1151 86.996 98.1491 86.683 97.2181C82.998 86.2671 80.353 74.9651 78.796 63.5161C73.7 61.8521 68.703 59.8831 63.842 57.6221C60.45 56.0441 56.689 53.7181 56.351 49.9921C56.169 49.9681 55.987 49.9451 55.805 49.9211C55.836 48.6831 55.767 47.2721 55.745 44.5281C57.324 43.3221 58.452 41.5381 58.864 39.5951C58.934 39.2671 58.985 38.9291 59.139 38.6311C59.304 38.3111 59.575 38.0601 59.827 37.8031C60.993 36.6141 61.867 35.1401 62.349 33.5461C62.663 32.5081 62.745 31.2171 61.931 30.5001C61.933 27.5751 61.934 24.6501 61.936 21.7241C61.936 21.2041 61.934 20.6701 61.752 20.1831C61.536 19.6071 61.091 19.1541 60.712 18.6701C59.521 17.1491 58.928 15.1721 59.086 13.2461C58.257 13.3181 57.413 13.3891 56.601 13.2061C55.789 13.0231 55.001 12.5421 54.659 11.7841C54.564 11.5731 54.496 11.3341 54.316 11.1901C54.003 10.9401 53.546 11.1021 53.147 11.0741C52.296 11.0151 51.771 10.1021 50.983 9.77711C49.457 9.14911 47.43 10.8441 46.204 9.7391C46.028 9.5801 45.894 9.3751 45.705 9.2311C45.144 8.8041 44.341 9.04611 43.699 9.33711C40.48 10.7961 37.648 13.0981 35.562 15.9501C35.251 16.3761 34.948 16.8321 34.861 17.3521C34.781 17.8311 34.889 18.3401 34.716 18.7931C34.492 19.3801 33.834 19.7671 33.758 20.3901C33.714 20.7451 33.875 21.0881 33.961 21.4341C34.263 22.6461 33.664 23.8761 33.417 25.1011C33.055 26.8941 33.49 28.8331 34.583 30.3011C34.068 30.2601 33.595 30.6451 33.372 31.1101C33.149 31.5761 33.125 32.1091 33.114 32.6251C33.08 34.2071 33.137 35.8281 33.716 37.3011C34.295 38.7741 35.483 40.0881 37.027 40.4371C37.297 40.4981 37.523 43.9341 37.566 44.3271C37.691 45.4721 37.617 46.7631 37.934 47.8741C38.016 48.1621 38.151 48.4281 38.299 48.6881C32.335 53.8001 25.57 57.9771 18.315 60.9881C15.897 61.9921 13.403 62.8801 11.217 64.3211C10.788 64.6041 10.341 64.9521 10.228 65.4541C10.144 65.8291 10.265 66.2171 10.388 66.5821C11.018 68.4551 11.7 70.6041 10.704 72.3111C10.245 73.0971 9.462 73.7011 9.2 74.5731C9.032 75.1311 9.102 75.7291 9.156 76.3091C9.447 79.4341 9.231 82.6051 8.519 85.6621C8.321 86.5101 8.088 87.4161 8.397 88.2311C8.615 88.8051 9.087 89.2781 9.193 89.8821C9.418 91.1581 7.995 92.0681 7.469 93.2521C7.107 94.0651 7.186 94.9961 7.247 95.8841C7.672 102.078 6.901 108.288 6 114.43C6.698 114.542 7.292 115.136 7.403 115.834C7.514 116.532 7.135 117.281 6.506 117.605C5.972 120.095 8.059 122.359 8.606 124.846C8.887 126.125 8.786 127.491 9.274 128.707C9.514 129.304 9.887 129.84 10.129 130.436C10.611 131.624 10.54 132.952 10.507 134.234C10.451 136.378 10.523 138.525 10.721 140.661C10.846 142.011 11.023 143.36 11.372 144.67C12.522 148.996 15.489 152.717 16.316 157.116C16.939 156.465 17.592 155.842 18.257 155.233C19.232 156.967 20.482 158.489 21.789 159.434C22.076 159.642 22.383 159.827 22.699 159.991C22.112 161.391 21.366 162.72 20.433 163.936C21.175 164.331 21.963 164.588 22.774 164.763C22.595 165.268 22.557 165.824 22.532 166.366C21.88 180.483 21.229 194.599 20.577 208.716C20.494 210.513 20.415 212.346 20.9 214.079C21.118 214.858 21.451 215.621 21.472 216.431C21.491 217.181 21.24 217.907 21.031 218.627C20.138 221.715 19.997 224.963 19.862 228.175C19.521 236.274 19.181 244.373 18.84 252.472C18.792 253.606 18.732 254.787 18.187 255.783C17.861 256.377 17.376 256.878 17.097 257.496C16.397 259.047 17.157 260.821 17.746 262.417C19.752 267.852 19.757 273.79 19.738 279.583C19.991 279.595 20.243 279.606 20.496 279.618C19.156 281.893 17.305 283.894 15.367 285.715C14.128 286.879 12.823 288.021 11.96 289.486C11.178 290.813 10.802 292.333 10.436 293.829C10.344 294.206 10.255 294.622 10.434 294.967C10.55 295.19 10.762 295.346 10.979 295.473C11.741 295.919 12.627 296.096 13.497 296.243C14.442 296.404 15.4 296.539 16.356 296.481C17.606 296.406 18.811 296.006 19.998 295.609C21.23 295.197 22.469 294.782 23.614 294.169C24.798 293.534 25.87 292.689 26.764 291.686C27.29 291.095 27.789 290.425 28.522 290.127C28.965 289.947 29.453 289.923 29.926 289.849C31.143 289.658 32.303 289.116 33.23 288.305C33.374 288.179 33.517 288.041 33.597 287.867C33.699 287.645 33.69 287.39 33.678 287.146C33.548 284.427 33.401 281.708 33.171 278.996C34.619 277.888 35.551 276.034 36.328 274.312C36.577 273.761 36.831 273.149 36.66 272.569C36.471 271.927 35.824 271.538 35.473 270.967C34.948 270.115 35.157 269.022 35.382 268.047C36.465 263.362 37.548 258.678 38.632 253.994C38.946 252.637 39.261 251.267 39.288 249.874C39.314 248.543 39.075 247.223 38.93 245.9C38.632 243.185 38.726 240.444 38.849 237.716C39.671 219.482 41.773 201.307 45.135 183.367C45.691 180.4 46.286 177.423 47.348 174.596C48.052 172.722 48.961 170.895 49.739 169.041C51.178 179.088 54.166 188.977 55.459 199.08C56.3 205.647 56.419 212.283 56.537 218.902C56.679 226.871 56.821 234.84 56.963 242.809C57.031 246.598 57.087 250.468 55.933 254.077C55.63 255.025 55.242 256.029 55.52 256.984C56.106 258.998 59.209 259.478 59.652 261.528C58.802 261.188 57.806 261.764 57.362 262.565C56.918 263.366 56.885 264.323 56.863 265.239C56.781 268.594 56.852 272.354 59.227 274.726C59.338 274.837 59.471 274.921 59.589 275.023C59.587 275.029 59.585 275.035 59.584 275.041C59.003 277.458 58.74 279.952 58.806 282.437C58.817 282.85 58.841 283.278 59.027 283.647C59.348 284.284 60.071 284.601 60.758 284.792C62.952 285.4 65.274 285.208 67.551 285.195C69.828 285.182 72.225 285.393 74.113 286.666C75.633 287.691 76.706 289.335 78.353 290.14C79.806 290.851 81.499 290.808 83.115 290.741C85.488 290.643 87.892 290.518 90.152 289.791C90.916 289.545 91.677 289.219 92.25 288.659C92.822 288.097 93.179 287.261 92.991 286.481ZM80.706 143.804C80.714 143.816 80.723 143.828 80.731 143.841C80.729 143.851 80.727 143.86 80.725 143.87C80.719 143.848 80.712 143.826 80.706 143.804Z" fill="url(#paint0_linear_790_532)"/>
</g>
<defs>
<linearGradient id="paint0_linear_790_532" x1="49.5207" y1="9" x2="49.5207" y2="218" gradientUnits="userSpaceOnUse">
<stop/>
<stop offset="0.673456" stop-color="#6E6E6E"/>
</linearGradient>
</defs>
</svg>
