<svg width="92" height="213" viewBox="0 0 92 213" fill="none" xmlns="http://www.w3.org/2000/svg">
<rect x="4" y="7" width="46" height="3" rx="1.5" fill="white" fill-opacity="0.25"/>
<rect x="4" y="13" width="38.069" height="3" rx="1.5" fill="white" fill-opacity="0.25"/>
<circle cx="83.3798" cy="11.62" r="4.62" fill="white" fill-opacity="0.25"/>
<circle cx="71.4999" cy="11.62" r="4.62" fill="white" fill-opacity="0.25"/>
<circle cx="59.62" cy="11.62" r="4.62" fill="white" fill-opacity="0.25"/>
<rect x="1" y="1" width="90" height="22" rx="2" stroke="white" stroke-opacity="0.25" stroke-width="2"/>
<rect x="4" y="115" width="46" height="3" rx="1.5" fill="white" fill-opacity="0.25"/>
<rect x="4" y="121" width="38.069" height="3" rx="1.5" fill="white" fill-opacity="0.25"/>
<circle cx="83.3798" cy="119.62" r="4.62" fill="white" fill-opacity="0.25"/>
<circle cx="71.4999" cy="119.62" r="4.62" fill="white" fill-opacity="0.25"/>
<circle cx="59.62" cy="119.62" r="4.62" fill="white" fill-opacity="0.25"/>
<rect x="1" y="109" width="90" height="22" rx="2" stroke="white" stroke-opacity="0.25" stroke-width="2"/>
<rect x="4" y="61" width="46" height="3" rx="1.5" fill="white" fill-opacity="0.25"/>
<rect x="4" y="67" width="38.069" height="3" rx="1.5" fill="white" fill-opacity="0.25"/>
<circle cx="83.3798" cy="65.62" r="4.62" fill="white" fill-opacity="0.25"/>
<circle cx="71.4999" cy="65.62" r="4.62" fill="white" fill-opacity="0.25"/>
<circle cx="59.62" cy="65.62" r="4.62" fill="white" fill-opacity="0.25"/>
<rect x="1" y="55" width="90" height="22" rx="2" stroke="white" stroke-opacity="0.25" stroke-width="2"/>
<rect x="4" y="169" width="46" height="3" rx="1.5" fill="white" fill-opacity="0.25"/>
<rect x="4" y="175" width="38.069" height="3" rx="1.5" fill="white" fill-opacity="0.25"/>
<circle cx="83.3798" cy="173.62" r="4.62" fill="white" fill-opacity="0.25"/>
<circle cx="71.4999" cy="173.62" r="4.62" fill="white" fill-opacity="0.25"/>
<circle cx="59.62" cy="173.62" r="4.62" fill="white" fill-opacity="0.25"/>
<rect x="1" y="163" width="90" height="22" rx="2" stroke="white" stroke-opacity="0.25" stroke-width="2"/>
<rect x="4" y="34" width="46" height="3" rx="1.5" fill="white" fill-opacity="0.25"/>
<rect x="4" y="40" width="38.069" height="3" rx="1.5" fill="white" fill-opacity="0.25"/>
<circle cx="83.3798" cy="38.62" r="4.62" fill="white" fill-opacity="0.25"/>
<circle cx="71.4999" cy="38.62" r="4.62" fill="white" fill-opacity="0.25"/>
<circle cx="59.62" cy="38.62" r="4.62" fill="white" fill-opacity="0.25"/>
<rect x="1" y="28" width="90" height="22" rx="2" stroke="white" stroke-opacity="0.25" stroke-width="2"/>
<rect x="4" y="142" width="46" height="3" rx="1.5" fill="white" fill-opacity="0.25"/>
<rect x="4" y="148" width="38.069" height="3" rx="1.5" fill="white" fill-opacity="0.25"/>
<circle cx="83.3798" cy="146.62" r="4.62" fill="white" fill-opacity="0.25"/>
<circle cx="71.4999" cy="146.62" r="4.62" fill="white" fill-opacity="0.25"/>
<circle cx="59.62" cy="146.62" r="4.62" fill="white" fill-opacity="0.25"/>
<rect x="1" y="136" width="90" height="22" rx="2" stroke="white" stroke-opacity="0.25" stroke-width="2"/>
<rect x="4" y="88" width="46" height="3" rx="1.5" fill="white" fill-opacity="0.25"/>
<rect x="4" y="94" width="38.069" height="3" rx="1.5" fill="white" fill-opacity="0.25"/>
<circle cx="83.3798" cy="92.62" r="4.62" fill="white" fill-opacity="0.25"/>
<circle cx="71.4999" cy="92.62" r="4.62" fill="white" fill-opacity="0.25"/>
<circle cx="59.62" cy="92.62" r="4.62" fill="white" fill-opacity="0.25"/>
<rect x="1" y="82" width="90" height="22" rx="2" stroke="white" stroke-opacity="0.25" stroke-width="2"/>
<rect x="4" y="196" width="46" height="3" rx="1.5" fill="white" fill-opacity="0.25"/>
<rect x="4" y="202" width="38.069" height="3" rx="1.5" fill="white" fill-opacity="0.25"/>
<circle cx="83.3798" cy="200.62" r="4.62" fill="white" fill-opacity="0.25"/>
<circle cx="71.4999" cy="200.62" r="4.62" fill="white" fill-opacity="0.25"/>
<circle cx="59.62" cy="200.62" r="4.62" fill="white" fill-opacity="0.25"/>
<rect x="1" y="190" width="90" height="22" rx="2" stroke="white" stroke-opacity="0.25" stroke-width="2"/>
</svg>
