<svg width="15" height="19" viewBox="0 0 15 19" fill="none" xmlns="http://www.w3.org/2000/svg">
<path fill-rule="evenodd" clip-rule="evenodd" d="M10.5095 9.56935C11.1705 9.21475 14.4716 7.33848 14.4815 5.24638C14.4913 3.15428 11.2081 1.24447 10.5505 0.883325C10.1353 0.655512 9.61856 0.815699 9.39564 1.2416C9.17615 1.66576 9.32972 2.19766 9.74487 2.42634C10.6909 2.9473 11.698 3.7083 12.28 4.36045L2.86996 4.31375C2.39831 4.31141 2.01522 4.70064 2.01294 5.18451C2.01066 5.66838 2.39006 6.06139 2.86171 6.06373L12.2718 6.11043C11.6827 6.75676 10.6693 7.50774 9.71849 8.0184C9.42947 8.17447 9.26258 8.47727 9.2611 8.79052C9.26045 8.92877 9.29219 9.0698 9.35811 9.19963C9.577 9.62772 10.0922 9.79303 10.5095 9.56935Z" fill="white"/>
<path opacity="0.7" fill-rule="evenodd" clip-rule="evenodd" d="M5.17048 17.8596C5.39337 17.4372 5.23725 16.9036 4.82295 16.6749C3.87866 16.1557 2.87408 15.3982 2.29119 14.7495L11.6987 14.7962C12.1695 14.7986 12.5534 14.4093 12.5557 13.9255C12.558 13.4416 12.1777 13.0486 11.7069 13.0462L2.29603 12.9995C2.88418 12.3532 3.89758 11.6022 4.84929 11.0907C5.26572 10.8661 5.42773 10.3332 5.20797 9.90945C4.98994 9.48136 4.47555 9.31606 4.05742 9.53974C3.39644 9.89433 0.0970304 11.7706 0.087159 13.8636C0.077329 15.9478 3.35889 17.8567 4.01649 18.2179C4.43249 18.4457 4.94841 18.2855 5.17048 17.8596Z" fill="white"/>
</svg>
