<svg
          width="500"
          height="362"
          viewBox="0 0 500 362"
          fill="none"
          xmlns="http://www.w3.org/2000/svg"
        >
          <g clip-path="url(#clip0_788_430)">
            <path
              d="M499.878 0.501953H0.123047V361.499H499.878V0.501953Z"
              fill="#06121A"
            />
            <path
              d="M433.626 291.228C420.358 207.909 344.257 135.523 248.31 137.023C155.76 138.469 80.4397 205.659 66 291.228V361.478L433.626 361.478V291.228Z"
              fill="#282828"
              stroke="#696969"
              stroke-width="1.17306"
            />
            <path
              d="M194.396 361.309V191.781H249.814H305.231V361.309H194.396Z"
              fill="#4A4A4A"
              stroke="#696969"
              stroke-width="2.60679"
            />
            <path
              d="M305.231 190.79C305.231 220.204 280.42 244.049 249.814 244.049C219.208 244.049 194.396 220.204 194.396 190.79C194.396 161.376 219.208 137.531 249.814 137.531C280.42 137.531 305.231 161.376 305.231 190.79Z"
              fill="#4A4A4A"
            />
            <path
              d="M305.231 190.79C305.231 220.204 280.42 244.049 249.814 244.049C219.208 244.049 194.396 220.204 194.396 190.79M305.231 190.79C305.231 161.376 280.42 137.531 249.814 137.531C219.208 137.531 194.396 161.376 194.396 190.79M305.231 190.79H194.396"
              stroke="#696969"
              stroke-width="2.60679"
            />
            <path d="M220.934 338.553L277.332 339.177Z" fill="black" />
            <path
              d="M220.934 338.553L277.332 339.177"
              stroke="#696969"
              stroke-width="2.60679"
            />
            <path
              d="M250.204 333.803C254.299 333.803 257.619 330.613 257.619 326.677C257.619 322.741 254.299 319.551 250.204 319.551C246.109 319.551 242.789 322.741 242.789 326.677C242.789 330.613 246.109 333.803 250.204 333.803Z"
              stroke="#696969"
              stroke-width="2.60679"
            />
          </g>
          <defs>
            <clipPath id="clip0_788_430">
              <rect width="500" height="362" fill="white" />
            </clipPath>
          </defs>
        </svg>